<svg id="Layer_1" data-name="Layer 1" xmlns="http://www.w3.org/2000/svg" viewBox="0 0 64 64"><path d="M33.61,56.66H27.49a.75.75,0,1,1,0-1.5h6.12a.75.75,0,0,1,0,1.5Z"/><path d="M30.43,62.75c-1,0-3.68,0-10.37-38a7.36,7.36,0,0,1,1.71-6.18,12,12,0,0,1,10-4h0A13.23,13.23,0,0,1,41,18.29,7.38,7.38,0,0,1,43,25.47C33.69,62.75,31.32,62.75,30.43,62.75ZM31,16a10.55,10.55,0,0,0-8.14,3.56,5.87,5.87,0,0,0-1.35,4.93C25.7,48.17,29,59.85,30.42,61.18c1.32-1.29,5-11.36,11.16-36.07A5.9,5.9,0,0,0,40,19.38a11.57,11.57,0,0,0-8.19-3.32h-.07C31.47,16,31.25,16,31,16Z"/><path d="M25,22.18a.8.8,0,0,1-.5-.19.76.76,0,0,1-.06-1.06A8.48,8.48,0,0,1,31,18a.75.75,0,1,1,0,1.5,7.07,7.07,0,0,0-5.51,2.38A.73.73,0,0,1,25,22.18Z"/><path d="M36.06,16.81a.75.75,0,0,1-.41-1.38c4.58-3,6.91-6.64,7.2-9a2,2,0,0,0-.32-1.61c-.69-.75-1.22-.66-2.35-.38a5.84,5.84,0,0,1-2.59.22,6,6,0,0,1-2.33-1,3.74,3.74,0,0,0-2.47-.76,7.81,7.81,0,0,0-2.36.54A4.2,4.2,0,0,1,27,3.61l-.4-.18c-1.82-.83-2.48-1.05-3.23.21C21.68,6.39,27,12.94,29,15a.77.77,0,0,1,0,1.07.75.75,0,0,1-1.06,0c-.88-.91-8.47-8.95-5.92-13.19,1.48-2.48,3.51-1.55,5.14-.8l.39.17a2.84,2.84,0,0,0,2.35-.17,8.82,8.82,0,0,1,2.8-.62,5.15,5.15,0,0,1,3.34,1,4.59,4.59,0,0,0,1.79.79,4.67,4.67,0,0,0,2-.19c1.11-.28,2.49-.62,3.81.81a3.39,3.39,0,0,1,.71,2.82c-.31,2.46-2.55,6.57-7.87,10A.78.78,0,0,1,36.06,16.81Z"/><path d="M36.93,9.63a6.62,6.62,0,0,1-3.76-1.29c-1.76-1.52-3.48-1.85-5.1-1A6,6,0,0,1,22,6.75a.75.75,0,1,1,.9-1.2A4.49,4.49,0,0,0,27.38,6c2.15-1.13,4.55-.71,6.77,1.19a4.92,4.92,0,0,0,3.28.88,1.11,1.11,0,0,0,.84-.63,2.42,2.42,0,0,1,1.41-1.27c1.64-.55,3.82.53,4.06.66a.75.75,0,0,1-.69,1.33,4.84,4.84,0,0,0-2.89-.56.85.85,0,0,0-.53.47,2.58,2.58,0,0,1-1.88,1.47A3.74,3.74,0,0,1,36.93,9.63Z"/></svg>